<?xml version="1.0" encoding="utf-8"?>
<!-- Generator: Adobe Illustrator 23.0.2, SVG Export Plug-In . SVG Version: 6.00 Build 0)  -->
<svg version="1.1" id="Layer_1" xmlns="http://www.w3.org/2000/svg" xmlns:xlink="http://www.w3.org/1999/xlink" x="0px" y="0px"
	 viewBox="0 0 35 35" style="enable-background:new 0 0 35 35;" xml:space="preserve">
<style type="text/css">
	.st0{fill:#FFFFFF;}
	.st1{display:none;fill:#FFFFFF;}
</style>
<path id="Facebook" class="st0" d="M18.6,35V21.5h-4.5v-5.4h4.5v-4.5c0-3.5,2.9-6.4,6.4-6.4l4.5,0.2v5c0,0-2.5,0-3.3,0
	c-1.3,0-2,0.8-2,2.2c0,0.9,0,2.1,0,3.5h5.3l-0.7,5.4h-4.5c0,6.5,0,13.5,0,13.5"/>
<path id="Google" class="st1" d="M28.1,16.2c0-0.2,0-0.5-0.2-0.7c-0.1,0.1-0.2,0-0.3,0c-3.2,0-6.4,0-9.6,0c-0.1,0-0.2,0-0.3,0
	c-0.1,0.1-0.1,0.2-0.1,0.3c0,1.2,0,2.4,0,3.6c0,0.3,0.1,0.3,0.3,0.3c1.8,0,3.5,0,5.3,0c0.3,0,0.4,0.1,0.3,0.4
	c-0.3,1.3-1.1,2.3-2.1,3c0,0,0,0,0,0c-0.1,0-0.1,0.1-0.2,0.1c-2.4,1.5-5.5,1.2-7.7-0.6c-1-0.8-1.6-1.8-2.1-3l0,0
	c-0.4-1.4-0.4-2.8,0-4.2c0,0,0,0,0,0c0,0,0,0,0,0c0.6-1.3,1.3-2.7,3.1-3.7c2.3-1.3,5.1-1.1,7.1,0.6c0.1,0.1,0.2,0.2,0.4,0
	c0.9-0.9,1.9-1.9,2.8-2.8c0.1-0.1,0.1-0.2,0-0.3c-0.5-0.5-1.1-0.9-1.8-1.3c-1.8-1.1-5-1.5-7.6-1.2c-1.7,0.2-3.3,1-4.6,2.1
	c-1.2,1-2.6,3-3,3.7c-1,2-1.4,4-1.1,6.2C7,20,7.3,21.2,7.9,22.4c0,0,0,0,0,0c0,0.1,0.1,0.2,0.1,0.3c1,1.9,2.5,3.4,4.4,4.4
	c1.4,0.8,2.9,1.2,4.5,1.3c0.5,0,1,0,1.5,0c2.5-0.1,4.7-0.9,6.5-2.6c0.4-0.4,0.8-0.8,1.1-1.2C28,22,28.5,19.2,28.1,16.2z"/>
</svg>
