<svg id="Layer_1" data-name="Layer 1" xmlns="http://www.w3.org/2000/svg" viewBox="0 0 35 35"><defs><style>.cls-1{fill:#fff;}</style></defs><title>google</title><path id="Google" class="cls-1" d="M28.14,16.17a1.36,1.36,0,0,0-.16-.74.52.52,0,0,1-.3,0H18.1a.52.52,0,0,1-.3,0c-.12.07-.06.18-.06.27,0,1.21,0,2.42,0,3.63,0,.27.08.31.33.31h5.25c.3,0,.36.07.29.37a5.2,5.2,0,0,1-2.13,3h0a1.51,1.51,0,0,1-.17.1,6.64,6.64,0,0,1-7.66-.56,7.11,7.11,0,0,1-2.08-3h0a7.06,7.06,0,0,1,0-4.22h0a6.69,6.69,0,0,1,3-3.69,6.25,6.25,0,0,1,7.12.63c.13.1.21.2.38,0,.93-.95,1.86-1.88,2.8-2.81.15-.15.12-.21,0-.33a11.48,11.48,0,0,0-1.75-1.27,13.27,13.27,0,0,0-7.59-1.2A9.29,9.29,0,0,0,10.9,8.86,13.6,13.6,0,0,0,8,12.54a10.64,10.64,0,0,0-1.11,6.2,10.12,10.12,0,0,0,1.1,3.63h0c0,.1.09.21.15.31a10.85,10.85,0,0,0,4.44,4.44A10.25,10.25,0,0,0,17,28.39c.5,0,1,0,1.49,0A9.88,9.88,0,0,0,25,25.77a7.18,7.18,0,0,0,1.12-1.22A11.52,11.52,0,0,0,28.14,16.17Z"/></svg>