<svg id="Layer_1" data-name="Layer 1" xmlns="http://www.w3.org/2000/svg" viewBox="0 0 336.66 60.09"><defs><style>.cls-1{fill:#1e3464;}.cls-2,.cls-3{font-size:23.15px;fill:#75bde0;stroke:#75bde0;stroke-miterlimit:10;stroke-width:0.05px;}.cls-2{font-family:InkFree, Ink Free;letter-spacing:-0.01em;}.cls-3{font-family:SketchFlowPrint, SketchFlow Print;letter-spacing:-0.01em;}</style></defs><title>logo</title><path id="Flag" class="cls-1" d="M247.45,6.87a28.88,28.88,0,0,0,9.62-1.77L256.31,8l3.55-2.19L263.4,8l-.76-4,2.79-2.44a22.44,22.44,0,0,1,5.4-1.35c3.78-.54,4.57.83,4.81,3.37.58,6,4.75,4.67,8.44,3.29C287.94,5.34,299.52,1,299.52,1c4-1.16,6.42-1.1,6.74,2.32.47,5.08,3.54,6.31,8.2,3.76,8.67-4.75,16.16-8.74,20.68-5.57l1.52,12.82c-2.29-1.4-5.09-1.57-8.53,0-7.1,3.25-13.57,5.9-17.72,5.83-2.24-.07-3.58-1.06-3.8-3.21-.2-4.7-3.84-5.29-8-3.88-6.22,2.09-11.75,5.3-15.19,5.91-4.23.74-6.76,0-6.76-2.62A6.36,6.36,0,0,0,275,11.59l.08-2.87-1.43.09-1.44-4-1.6,4-4.22.34,3.29,2.7-8.19,3.54-4.64-.34-1.52-3.54-1.52,3.54-4.13.26,2.7,2.61-4-.33S247.23,9.85,247.45,6.87Zm.85,30.71c3.4.91,7.48.7,13.16-2.19l8.19-3.54c5.15-1.39,6.3-1,7.34,3.76.76,3.46,2.19,4.07,6.42,3.32,3.44-.6,9-3.81,15.19-5.9,4.17-1.41,7.81-.82,8,3.88.22,2.15,1.56,3.14,3.8,3.21,4.15.07,10.62-2.58,17.72-5.83,3.44-1.57,6.24-1.4,8.53,0l-1.52-12.83c-4.52-3.16-12,.83-20.68,5.57-4.66,2.56-7.73,1.33-8.2-3.75-.32-3.42-2.76-3.48-6.74-2.32l-15.44,5.82c-3.69,1.38-7.86,2.7-8.44-3.29-.24-2.54-1.06-4.06-4.81-3.38-9,1.66-15,7.73-23.38,6.76C247.23,29.85,248.3,37.58,248.3,37.58Zm0,20c3.4.91,7.48.69,13.16-2.2l8.19-3.54c5.15-1.39,6.3-1,7.34,3.76.76,3.46,2.19,4.07,6.42,3.33,3.44-.61,9-3.81,15.19-5.91,4.17-1.41,7.81-.82,8,3.88.22,2.15,1.56,3.14,3.8,3.21,4.15.07,10.62-2.58,17.72-5.82,3.44-1.57,6.24-1.41,8.53,0l-1.52-12.83c-4.52-3.17-12,.82-20.68,5.57-4.66,2.55-7.73,1.33-8.2-3.76-.32-3.41-2.76-3.48-6.74-2.32l-15.44,5.83c-3.69,1.38-7.86,2.7-8.44-3.3-.24-2.53-1.06-4.06-4.81-3.37-9,1.65-15,7.73-23.38,6.75C247.23,49.82,248.3,57.56,248.3,57.56Z"/><path class="cls-1" d="M11.41,7.22h-4V26.49H3.94V7.22H0V4.75H11.41ZM23.94,26.49H14.57V4.75h9.21V7.22H18v6.9h5.33v2.47H18v7.49h5.92Zm16.93,0H37.5l-1-4.3H31.07l-1,4.3H26.78L32.37,4.75h2.87ZM36.09,20,33.81,9.67h-.08L31.58,20Zm21.15,6.51H54l.47-12.24L51.17,24.46H49.94l-3-10.16.22,12.19H43.88l0-21.74h3L50.56,18h.08l3.69-13.2h3Zm24.7,0H78.31l-4-5.91H74v5.91h-3.5V4.75h4.84c8.31,0,7.93,13.63,2.2,15.59Zm-8-8.9c1.36,0,1.84,0,2.94-.82,2-1.56,2.47-6.71.08-8.91A4,4,0,0,0,74.16,7H74Zm62.74,8.9h-3.63L129,20.58h-.3v5.91h-3.5V4.75H130c8.31,0,7.93,13.63,2.2,15.59Zm-8-8.9c1.36,0,1.84,0,2.94-.82,2-1.56,2.47-6.71.08-8.91A4,4,0,0,0,128.91,7h-.21Zm32.05,8.9h-3.63l-4.06-5.91h-.3v5.91h-3.5V4.75h4.84c8.31,0,7.93,13.63,2.2,15.59Zm-8-8.9c1.36,0,1.84,0,2.94-.82,2-1.56,2.47-6.71.08-8.91A4,4,0,0,0,153,7h-.21ZM85.32,4.75h3.5V26.49h-3.5Zm7.56,0h4l3.88,16.44,4.15-16.44h4l-6.47,21.74H99.1Zm29,21.74h-9.37V4.75h9.22V7.23h-5.76v6.89h5.33V16.6h-5.33v7.48h5.91Zm54.92-5.44q0,5.44-5.82,5.44c-4.25,0-6.38-1.81-6.38-5.41V4.47H168V19.84a7.87,7.87,0,0,0,.52,3.42,2.27,2.27,0,0,0,2.21,1c1.14,0,1.85-.35,2.13-1a9.85,9.85,0,0,0,.43-3.54V4.47h3.46Zm16.69,5.13h-2.74L184.1,11.26H184V26.18h-3.12V4.44h2.79l6.63,14.91.07,0V4.44h3.07Zm16.73,0h-2.74l-6.61-14.92h-.07V26.18h-3.14V4.44h2.79L207,19.35l.07,0V4.44h3.07Zm13.89,0h-9.39V4.44h9.22V6.91h-5.76v6.9h5.34v2.47h-5.34v7.49h5.93Zm14.37.31h-3.63l-4.06-5.91h-.3v5.91H227V4.75h4.84c8.31,0,7.93,13.63,2.2,15.59Zm-8-8.9c1.36,0,1.84,0,2.94-.82,2-1.56,2.47-6.71.08-8.91A4,4,0,0,0,230.66,7h-.21Z"/><text class="cls-2" transform="translate(26.79 45.85) scale(1.11 1)">river</text><text class="cls-3" transform="translate(77.27 45.85) scale(1.11 1)"><tspan xml:space="preserve"> t</tspan></text><text class="cls-2" transform="translate(98.05 45.85) scale(1.11 1)">o</text><text class="cls-3" transform="translate(108.63 45.85) scale(1.11 1)"> </text><text class="cls-2" transform="translate(119.84 45.85) scale(1.11 1)">recovery</text></svg>